<svg width="901" height="403" viewBox="0 0 901 403" fill="none" xmlns="http://www.w3.org/2000/svg">
  <path d="M173.458 103.689C111.814 112.58 56.3475 176.584 33.4167 231.779C21.4007 260.701 5.99589 296.425 4.24733 327.992C1.04686 385.77 114.31 393.194 149.037 392.552C299.558 389.77 444.642 304.495 572.524 234.07C672.556 178.981 766.967 117.916 856.417 47.0598C868.667 37.3564 882.001 28.786 892.791 17.4814C894.791 15.3853 898.348 12.2497 896.828 9.78264C889.119 -2.72898 867.249 7.67343 852.741 10.0184C697.108 35.1751 543.757 102.949 402.676 170.828C331.665 204.994 262.267 243.205 195.284 284.732C174.984 297.316 146.091 311.956 194.083 298.378C367.329 249.365 536.772 181.994 716.211 157.618C760.372 151.619 703.278 211.502 696.824 219.377C632.546 297.81 560.32 370.625 489.832 443.443C459.792 474.476 429.611 505.349 399.174 535.98C393.976 541.211 404.288 536.871 406.078 536.295" stroke="#CCCCCC" stroke-opacity="0.09" stroke-width="7.44455" stroke-linecap="round"/>
</svg>
